<?xml version="1.0" encoding="utf-8"?>
<svg viewBox="0 0 200 200" xmlns="http://www.w3.org/2000/svg" width="200px" height="200px">
  <defs>
    <linearGradient id="mainGradient" x1="0%" y1="0%" x2="100%" y2="100%">
      <stop offset="0" style="stop-color:#326CE5;stop-opacity:1"/>
      <stop offset="1" style="stop-color:#5B8DEE;stop-opacity:1"/>
    </linearGradient>
    <linearGradient id="accentGradient" x1="0%" y1="0%" x2="100%" y2="100%">
      <stop offset="0" style="stop-color:#00D9FF;stop-opacity:1"/>
      <stop offset="1" style="stop-color:#00B8E6;stop-opacity:1"/>
    </linearGradient>
  </defs>

  <g transform="matrix(1, 0, 0, 1, 0, 10)">

    <!-- Heptagon (7 sides) replacing hexagon -->
    <path d="M 100.0 20.0 L 154.7 46.4 L 168.2 105.6 L 130.4 153.1 L 69.6 153.1 L 31.8 105.6 L 45.3 46.4 Z"
          fill="url(#mainGradient)" stroke="#326CE5" stroke-width="3" opacity="0.9"/>


    <!-- Central ellipse (body) -->
    <ellipse cx="100" cy="90" rx="28" ry="35" fill="url(#accentGradient)"/>

    <!-- Eyes -->
    <circle cx="90" cy="80" r="10" fill="#fff"/>
    <circle cx="110" cy="80" r="10" fill="#fff"/>
    <circle cx="90" cy="80" r="5" fill="#326CE5"/>
    <circle cx="110" cy="80" r="5" fill="#326CE5"/>

    <!-- Nose/beak -->
    <path d="M 100 88 L 95 95 L 105 95 Z" fill="#FF9800"/>

    <!-- Side dots -->
    <circle cx="75" cy="95" r="8" fill="#fff" opacity="0.8"/>
    <circle cx="125" cy="95" r="8" fill="#fff" opacity="0.8"/>

    <!-- Antennae -->
    <path d="M 85 65 L 82 55 L 88 60 Z" fill="url(#accentGradient)"/>
    <path d="M 115 65 L 118 55 L 112 60 Z" fill="url(#accentGradient)"/>

    <!-- Side dot pupils -->
    <circle cx="75" cy="95" r="3" fill="#326CE5"/>
    <circle cx="125" cy="95" r="3" fill="#326CE5"/>

    <!-- Outer orbit ring with 7 dots (matching heptagon vertices) -->
    <g opacity="0.2">
      <circle cx="100" cy="90" r="45" fill="none" stroke="#fff" stroke-width="2"/>
      <circle cx="100.0" cy="45.0" r="4" fill="#fff"/>
      <circle cx="135.2" cy="61.9" r="4" fill="#fff"/>
      <circle cx="143.9" cy="100.0" r="4" fill="#fff"/>
      <circle cx="119.5" cy="130.5" r="4" fill="#fff"/>
      <circle cx="80.5" cy="130.5" r="4" fill="#fff"/>
      <circle cx="56.1" cy="100.0" r="4" fill="#fff"/>
      <circle cx="64.8" cy="61.9" r="4" fill="#fff"/>
    </g>

    <!-- Bottom indicator dot -->
    <circle cx="100" cy="130" r="4" fill="#00D9FF" opacity="0.7"/>
    <line x1="100" y1="115" x2="100" y2="126" stroke="#00D9FF" stroke-width="2" opacity="0.5"/>

  </g>
</svg>
